<svg xmlns="http://www.w3.org/2000/svg" viewBox="0 0 512 512">
  <defs>
    <linearGradient id="grad" x1="0%" y1="0%" x2="100%" y2="100%">
      <stop offset="0%" style="stop-color:#00d4ff;stop-opacity:1" />
      <stop offset="100%" style="stop-color:#6366f1;stop-opacity:1" />
    </linearGradient>
  </defs>
  <circle cx="256" cy="256" r="240" fill="#0a0a0f" />
  <path d="M256 64c-79.5 0-144 64.5-144 144 0 48.3 25.6 91.5 64.6 117.4l66 114.3c3.2 5.5 10.3 5.5 13.5 0l66-114.3C362.4 299.5 388 256.3 388 208c0-79.5-64.5-144-144-144zm0 224c-44.2 0-80-35.8-80-80s35.8-80 80-80 80 35.8 80 80-35.8 80-80 80z" fill="url(#grad)"/>
  <circle cx="256" cy="208" r="48" fill="#0a0a0f" />
</svg>
